<?xml version="1.0"?>
<svg version="1.1" id="圖層_1" xmlns="http://www.w3.org/2000/svg" x="0" y="0" viewBox="0 0 100 100" xml:space="preserve"><path id="XMLID_31_" d="M60.609 60.909c-.664 1.949.49 4.082 2.502 4.517 7.045 1.524 13.084.296 14.282-3.217 1.198-3.513-2.832-8.174-9.338-11.272-1.86-.886-4.079.098-4.744 2.049l-1.058 3.102-3.686-1.152a1.668 1.668 0 0 0-.171-.626s-4.867-9.009-4.917-9.227l-2.602-11.314-.005.001.003-.009c-1.277-1.709-2.683-3.072-4.205-4.117 2.682-.818 5.084-3.299 6.092-6.681 1.455-4.881-.797-8.468-4.713-9.635-3.916-1.168-8.012.526-9.468 5.407-.93 3.118-.446 6.241 1.042 8.398-1.796-.16-3.696-.04-5.703.37l-12.2 3.405a.85.85 0 0 0-.534.441l-5.134 10.296-5.944-2.005-.583 1.866 5.644 1.911-.043.086a2.074 2.074 0 0 0 1.144 2.873l.039.014a2.07 2.07 0 0 0 2.509-.918l.443-.776 7.452 2.329-2.942 7.968-2.042 11.247a1.997 1.997 0 0 1-.804 1.268s-9.014 10.564-12.26 14.383A4.883 4.883 0 0 0 7.5 85.054v.027c0 1.075.871 1.947 1.946 1.947h1.619c1.2 0 2.354-.463 3.221-1.294L28.08 72.522c.359-.216.64-.539.806-.923l5.055-11.781 6.435 8.548c.126.167.225.353.293.551L46.2 84.991a3.019 3.019 0 0 0 2.855 2.037h2.509a1.48 1.48 0 0 0 1.451-1.77c-.977-4.917-3.971-18.351-3.971-18.351l-.14-.405-5.519-11.71a.852.852 0 0 1-.029-.659l.63-1.708 10.105 3.159.838 1.096c.6.801 1.761.906 2.495.226l.226-.209 3.974 1.242-1.015 2.97zm-33.218-15.72l-7.137-2.231 3.602-6.305a.854.854 0 0 1 .534-.405l6.944-1.739-3.943 10.68zm17.272 5.399l2.454-6.647.951 3.628c.034.13 2.111 2.88 3.971 5.325l-7.376-2.306z" fill="#333"/><path id="XMLID_37_" d="M92.128 85.51c-1.751-3.014-4.576-5.373-5.896-8.599-.657-1.605-.929-3.4-1.952-4.8-.451-.617-1.03-1.129-1.632-1.599-1.758-1.37-4.07-2.455-6.17-1.709-.974.346-1.141.492-2.549 1.731s-1.557 2.918-2.649 5.089c-1.092 2.171-2.664 3.372-5.626 3.452-2.962.08-7.2 3.689-6.785 7.468.018.161.051.324.095.485h33.451c.217-.47-.018-1.054-.287-1.518-1.751-3.014.269.464 0 0z" fill="#f8b26a"/><metadata xmlns:d="https://loading.io/stock/"><d:name>under construction</d:name><d:tags>mining,fix,build,work,mine,shovel,under construction,business</d:tags><d:license>pro</d:license><d:slug>37f3oq</d:slug></metadata></svg>